<?xml version="1.0" encoding="UTF-8"?>
<svg version="1.1" xmlns="http://www.w3.org/2000/svg" width="600" height="600">
<path d="M0 0 C4.11929631 1.55617861 6.29828798 4.0462866 8.33203125 7.97265625 C9.58731451 11.78255106 9.20806819 15.21792289 8 19 C6.19552367 22.00119501 4.18694621 24.4065269 1 26 C0.98598145 27.3614917 0.98598145 27.3614917 0.97167969 28.75048828 C0.92749516 32.13926814 0.86580889 35.52681226 0.79248047 38.91503906 C0.7643689 40.37748705 0.74310569 41.8400842 0.72900391 43.30273438 C0.70743581 45.41353169 0.66072344 47.52255429 0.609375 49.6328125 C0.58842773 50.90012207 0.56748047 52.16743164 0.54589844 53.47314453 C-0.2163177 58.39755165 -2.34778345 61.54805212 -6.0625 64.8125 C-9.60084565 66.98116346 -12.49123198 67.11909401 -16.54296875 67.09765625 C-17.61611328 67.09443359 -18.68925781 67.09121094 -19.79492188 67.08789062 C-20.91447266 67.07951172 -22.03402344 67.07113281 -23.1875 67.0625 C-24.31865234 67.05798828 -25.44980469 67.05347656 -26.61523438 67.04882812 C-29.41020927 67.03703498 -32.2050782 67.0205765 -35 67 C-35 69.64 -35 72.28 -35 75 C-34.14222458 74.99333817 -34.14222458 74.99333817 -33.26712036 74.98654175 C-27.33028658 74.94239049 -21.39349922 74.91216788 -15.45654297 74.89013672 C-13.23907579 74.88006175 -11.02162195 74.86640141 -8.80419922 74.84912109 C-5.62203688 74.82493837 -2.44004976 74.81353203 0.7421875 74.8046875 C2.23599442 74.78920364 2.23599442 74.78920364 3.75997925 74.77340698 C5.14118454 74.77318039 5.14118454 74.77318039 6.55029297 74.77294922 C7.3630368 74.768508 8.17578064 74.76406677 9.01315308 74.75949097 C11 75 11 75 13 77 C13.375 79.4375 13.375 79.4375 13 82 C10.20436017 84.62920472 8.3099788 85.37336189 4.50683594 85.34057617 C3.18591949 85.34023628 3.18591949 85.34023628 1.83831787 85.33988953 C0.89651672 85.32440567 -0.04528442 85.30892181 -1.015625 85.29296875 C-2.47207428 85.28660149 -2.47207428 85.28660149 -3.95794678 85.28010559 C-7.05558131 85.26332853 -10.15256249 85.22567772 -13.25 85.1875 C-15.3515531 85.17245192 -17.4531164 85.15876373 -19.5546875 85.14648438 C-24.70337629 85.11342811 -29.85157741 85.06165208 -35 85 C-35 87.64 -35 90.28 -35 93 C-26.44631981 92.91566313 -17.89284896 92.82080607 -9.33944225 92.71247292 C-5.36785063 92.6625023 -1.39628571 92.61617245 2.57543945 92.578125 C6.40754936 92.54128167 10.23943633 92.49492457 14.07135582 92.44193649 C15.53415712 92.42338742 16.99700621 92.40828133 18.45987892 92.39665604 C20.50709545 92.37980201 22.55380083 92.35077023 24.60083008 92.31884766 C26.34956169 92.29886215 26.34956169 92.29886215 28.13362122 92.2784729 C31.19874257 92.20813726 31.19874257 92.20813726 34 90 C34.72180937 86.10627316 34.55558556 82.14025695 34.5625 78.1875 C34.59923828 77.09373047 34.63597656 75.99996094 34.67382812 74.87304688 C34.87287066 69.20319618 34.87287066 69.20319618 32.67285156 64.18945312 C30.89019207 62.6593423 30.89019207 62.6593423 28 61 C25.45323514 57.52713882 25.6371978 54.20850557 26 50 C27.73388542 45.3458865 29.78590795 42.6460578 34 40 C38.58934075 38.47021975 41.84495639 39.14846124 46.16796875 41 C49.08921065 42.59453716 50.40822713 44.07113791 52 47 C53.1916876 51.47710411 53.37312172 54.90136382 51.875 59.3125 C50 62 50 62 47.41821289 63.78759766 C44.75576137 65.79158091 44.75576137 65.79158091 44.40405273 68.83740234 C44.41380127 69.90941895 44.4235498 70.98143555 44.43359375 72.0859375 C44.4171582 73.85324219 44.4171582 73.85324219 44.40039062 75.65625 C44.41263672 76.8834375 44.42488281 78.110625 44.4375 79.375 C44.54045318 94.35864786 44.54045318 94.35864786 40 99 C35.93015904 101.99778255 33.01723201 102.36766071 28.0065918 102.34057617 C26.98137169 102.34123329 26.98137169 102.34123329 25.93544006 102.34190369 C23.6897363 102.3398236 21.44479113 102.31653077 19.19921875 102.29296875 C17.63695178 102.28736999 16.07467953 102.28310121 14.5124054 102.28010559 C10.41056651 102.26867879 6.30904884 102.23923055 2.20733643 102.20599365 C-1.98217423 102.17524588 -6.17173704 102.16159022 -10.36132812 102.14648438 C-18.57438223 102.11435844 -26.78711408 102.06160849 -35 102 C-35 106.29 -35 110.58 -35 115 C-22.43890337 115.00829944 -9.8783171 114.98451964 2.68262768 114.9197216 C8.51517092 114.89064268 14.34731143 114.87263796 20.17993164 114.87988281 C25.8082612 114.88646746 31.43579436 114.86403943 37.06395912 114.82144547 C39.21172565 114.81029895 41.35957279 114.80962793 43.5073452 114.81957626 C46.51514027 114.83172313 49.52049488 114.80671441 52.52807617 114.77294922 C53.86164406 114.79128059 53.86164406 114.79128059 55.22215271 114.8099823 C59.76836143 114.78157713 59.76836143 114.78157713 63.62856483 112.66119766 C65.16820045 110.86170935 65.16820045 110.86170935 67 108 C70.47286118 105.45323514 73.79149443 105.6371978 78 106 C83.13959507 107.81397473 85.63292134 110.08375972 88 115 C88.82730415 119.71056853 88.45494473 123.05511479 86.375 127.375 C83.21531775 130.86728038 80.65226739 132.84286387 75.82421875 133.12890625 C70.00160933 132.80597161 67.04225778 131.14331422 63 127 C62.67 126.34 62.34 125.68 62 125 C29.99 124.67 -2.02 124.34 -35 124 C-35 128.29 -35 132.58 -35 137 C-31.91180908 136.97643433 -31.91180908 136.97643433 -28.76123047 136.95239258 C-21.94800916 136.90261418 -15.13477967 136.86951811 -8.32142448 136.84456348 C-4.19172395 136.82892825 -0.06221022 136.80772939 4.06738281 136.77368164 C8.05499983 136.74101137 12.04243751 136.72313087 16.03017807 136.71536827 C17.54918108 136.70983848 19.06817462 136.69904008 20.58710098 136.68280983 C22.71990177 136.66093289 24.85196779 136.65803725 26.98486328 136.65942383 C28.1973172 136.65276199 29.40977112 136.64610016 30.65896606 136.63923645 C35.59927793 137.17268941 38.85274715 138.85845487 42.35546875 142.34375 C45.86494663 148.20796266 44.38166383 156.61356294 44.22460938 163.16796875 C44.0362628 169.51075243 44.0362628 169.51075243 46.56787109 175.07421875 C48.42208733 176.67566332 48.42208733 176.67566332 50.39526367 177.86914062 C52 179 52 179 53 182 C53.50171564 188.12093081 53.08833623 191.1167095 49 196 C45.91709777 198.98013882 43.26624654 199.74402521 39 200 C33.80113659 198.91690346 30.76250645 196.58750615 27 193 C25.75800152 189.27400457 25.46491445 185.87020783 26 182 C27.7057029 178.77134809 29.01451049 176.62680828 32.10961914 174.65820312 C34.22212276 173.14032489 34.22212276 173.14032489 34.50170898 170.59570312 C34.49985596 169.66693359 34.49800293 168.73816406 34.49609375 167.78125 C34.49706055 166.25951172 34.49706055 166.25951172 34.49804688 164.70703125 C34.47806641 163.64871094 34.45808594 162.59039062 34.4375 161.5 C34.44458984 160.44167969 34.45167969 159.38335937 34.45898438 158.29296875 C34.69278901 153.06782024 34.69278901 153.06782024 32.87469482 148.37675476 C30.13279314 146.36313305 27.97899282 146.59979993 24.60083008 146.56762695 C23.95665634 146.5574353 23.3124826 146.54724365 22.64878845 146.53674316 C20.52228131 146.50657961 18.39622434 146.49734269 16.26953125 146.48828125 C14.79406737 146.47143694 13.31861787 146.45328703 11.84318542 146.43388367 C7.96180716 146.38635007 4.08048715 146.35656274 0.19891357 146.33044434 C-3.76269031 146.30065556 -7.72409337 146.25411952 -11.68554688 146.20898438 C-19.45693168 146.12291317 -27.22833102 146.05558519 -35 146 C-35 148.97 -35 151.94 -35 155 C-32.92549561 154.98428955 -32.92549561 154.98428955 -30.80908203 154.96826172 C-25.69159521 154.93213775 -20.57411971 154.90912728 -15.45654297 154.89013672 C-13.23907579 154.88006175 -11.02162195 154.86640141 -8.80419922 154.84912109 C-5.62203688 154.82493837 -2.44004976 154.81353203 0.7421875 154.8046875 C2.23599442 154.78920364 2.23599442 154.78920364 3.75997925 154.77340698 C5.14118454 154.77318039 5.14118454 154.77318039 6.55029297 154.77294922 C7.3630368 154.768508 8.17578064 154.76406677 9.01315308 154.75949097 C11 155 11 155 13 157 C13.25 159.5 13.25 159.5 13 162 C11 164 11 164 9.01315308 164.24050903 C8.20040924 164.23606781 7.38766541 164.23162659 6.55029297 164.22705078 C5.62948944 164.22689972 4.70868591 164.22674866 3.75997925 164.22659302 C2.76410797 164.21627045 1.76823669 164.20594788 0.7421875 164.1953125 C-0.27600067 164.1924826 -1.29418884 164.18965271 -2.3432312 164.18673706 C-5.603939 164.1755177 -8.86437484 164.15040996 -12.125 164.125 C-14.33202729 164.11497247 -16.53905888 164.10584623 -18.74609375 164.09765625 C-24.16415572 164.07557268 -29.58205843 164.04207795 -35 164 C-35 166.64 -35 169.28 -35 172 C-33.95658447 171.97643433 -33.95658447 171.97643433 -32.89208984 171.95239258 C-29.71981029 171.88977137 -26.54766115 171.85092323 -23.375 171.8125 C-22.28058594 171.78736328 -21.18617188 171.76222656 -20.05859375 171.73632812 C-9.82820374 171.64332458 -9.82820374 171.64332458 -5 175 C-0.63704827 179.83462219 0.11333354 182.34544075 0.10546875 188.80078125 C0.11892791 190.18426036 0.13395163 191.56772497 0.15039062 192.95117188 C0.17319813 195.13063709 0.18752307 197.30846858 0.17504883 199.48803711 C0.16620547 201.59347401 0.19518543 203.69567918 0.23046875 205.80078125 C0.23457764 207.06059814 0.23868652 208.32041504 0.24291992 209.6184082 C1.29046338 214.29739062 3.17603929 215.22768227 7 218 C9.07995641 221.68719545 9.50330967 224.80575273 9 229 C7.57115834 232.6223067 5.75142237 235.3148796 2.875 237.9375 C-1.45845629 239.53899471 -5.44509285 239.78708796 -10 239 C-13.90750052 236.98631875 -16.33449255 234.03622978 -18 230 C-18.74012705 225.26662931 -18.40133217 221.80266433 -16.25 217.5 C-14 215 -14 215 -10 214 C-10 203.77 -10 193.54 -10 183 C-18.25 182.67 -26.5 182.34 -35 182 C-34.94199219 185.84011719 -34.88398437 189.68023437 -34.82421875 193.63671875 C-34.78522313 197.35666844 -34.75486401 201.07659536 -34.7253418 204.79663086 C-34.70019999 207.3816955 -34.66608185 209.96668907 -34.62280273 212.55151367 C-34.56214078 216.26759374 -34.53378581 219.98273386 -34.51171875 223.69921875 C-34.48591232 224.85459641 -34.4601059 226.00997406 -34.43351746 227.20036316 C-34.43072005 235.20576024 -34.43072005 235.20576024 -37.32299805 239.2409668 C-43.25631951 243.13969741 -51.71623289 240.8301603 -58.39111328 239.53662109 C-68.85233454 237.27251543 -78.49440722 233.97608212 -88 229 C-88.92941406 228.53851563 -89.85882813 228.07703125 -90.81640625 227.6015625 C-117.95335814 213.62776935 -138.32339401 188.45009367 -147.59350586 159.50537109 C-157.09121547 127.53775992 -153.09539764 94.9905206 -137.35546875 65.6628418 C-121.81469037 38.01463008 -95.51852611 19.22109571 -65.33496094 10.60644531 C-61.33902671 9.56860543 -57.3168359 8.76706699 -53.25 8.0625 C-52.51152832 7.93383545 -51.77305664 7.8051709 -51.01220703 7.67260742 C-46.76907543 7.02271005 -43.17071005 6.94634693 -39 8 C-37.00698264 9.58066894 -36.13456649 10.73086702 -35 13 C-34.91065594 14.41973273 -34.88241022 15.84357791 -34.88647461 17.26611328 C-34.88658791 18.58725632 -34.88658791 18.58725632 -34.88670349 19.93508911 C-34.89186478 20.88721283 -34.89702606 21.83933655 -34.90234375 22.8203125 C-34.9037587 23.79410858 -34.90517365 24.76790466 -34.90663147 25.77120972 C-34.91224027 28.88917073 -34.92479427 32.0070606 -34.9375 35.125 C-34.94251387 37.23567605 -34.94707697 39.34635322 -34.95117188 41.45703125 C-34.96136275 46.63807047 -34.98093647 51.81895535 -35 57 C-27.08 56.67 -19.16 56.34 -11 56 C-10.67 45.77 -10.34 35.54 -10 25 C-11.65 24.34 -13.3 23.68 -15 23 C-18.26914859 18.26537101 -18.52924378 14.55705967 -18 9 C-14.73297448 1.01393762 -7.99833676 -1.18493878 0 0 Z M-106 61 C-107.051875 61.78375 -108.10375 62.5675 -109.1875 63.375 C-124.8681555 78.01027847 -133.75153133 98.77450664 -135.2890625 119.98828125 C-136.05277035 143.03990426 -127.72454277 165.16191665 -112 182 C-111.67 182 -111.34 182 -111 182 C-110.8985479 174.68607434 -110.82851237 167.37233026 -110.78027344 160.05786133 C-110.76016295 157.56983662 -110.73287073 155.08185914 -110.69824219 152.59399414 C-110.64970147 149.01697125 -110.62702505 145.44057349 -110.609375 141.86328125 C-110.58872986 140.75165115 -110.56808472 139.64002106 -110.54681396 138.4947052 C-110.47541697 132.40341895 -110.47541697 132.40341895 -112.91503906 126.96557617 C-113.60307617 126.31693604 -114.29111328 125.6682959 -115 125 C-117.8596853 119.58702425 -118.12300918 115.93519303 -118 110 C-104.33340528 108.28657618 -94.94062138 109.41050512 -83.80419922 117.93457031 C-79.53904635 121.64235052 -77.02399683 124.65200596 -76.35253906 130.34936523 C-76.29451905 133.28468276 -76.53361214 136.1043397 -77 139 C-78.32 139 -79.64 139 -81 139 C-81 159.79 -81 180.58 -81 202 C-68.73072231 205.8964214 -68.73072231 205.8964214 -56 207 C-55.01 206.34 -54.02 205.68 -53 205 C-52.54468722 202.11653645 -52.54468722 202.11653645 -52.6257782 198.6607666 C-52.61981659 197.67414213 -52.61981659 197.67414213 -52.61373454 196.66758585 C-52.6040742 194.45330396 -52.61595148 192.23965506 -52.62768555 190.02539062 C-52.6252588 188.4421515 -52.62154062 186.85891389 -52.61662292 185.27568054 C-52.60719418 180.96786947 -52.61665589 176.66028481 -52.62995505 172.35249138 C-52.6412455 167.85173368 -52.63716391 163.35098751 -52.63520813 158.85021973 C-52.63432439 151.29089647 -52.64542223 143.73166276 -52.66381836 136.17236328 C-52.68498722 127.42341496 -52.68849634 118.67459788 -52.6822564 109.92562914 C-52.67656846 101.52146192 -52.68220166 93.11734108 -52.69342995 84.71318054 C-52.69808351 81.13106939 -52.69894652 77.54898653 -52.6968441 73.96687317 C-52.69496517 69.75128084 -52.7030345 65.53582273 -52.7189045 61.320261 C-52.72315944 59.76982491 -52.72398981 58.21937522 -52.72121429 56.66893578 C-52.71800915 54.55888601 -52.72703154 52.44924148 -52.73930359 50.3392334 C-52.74135646 49.15640526 -52.74340933 47.97357712 -52.74552441 46.7549057 C-52.71730896 43.85664478 -52.71730896 43.85664478 -55 42 C-73.79819587 40.02124254 -91.76680228 49.80481255 -106 61 Z " fill="#FFFFFF" transform="translate(158,150)"/>
<path d="M0 0 C1.65038902 1.15395726 3.25005781 2.37997052 4.8359375 3.62109375 C3.36967894 6.96930273 1.49935303 9.31375734 -1.0390625 11.93359375 C-1.71710938 12.65160156 -2.39515625 13.36960938 -3.09375 14.109375 C-5.1640625 15.62109375 -5.1640625 15.62109375 -7.2578125 15.44921875 C-9.1640625 14.62109375 -9.1640625 14.62109375 -11.7890625 13.05859375 C-16.31949833 11.12896368 -20.30197885 10.98796767 -25.1640625 11.62109375 C-28.0895269 12.97202255 -28.0895269 12.97202255 -30.1640625 14.62109375 C-30.8240625 14.62109375 -31.4840625 14.62109375 -32.1640625 14.62109375 C-32.4734375 15.40484375 -32.7828125 16.18859375 -33.1015625 16.99609375 C-34.1640625 19.62109375 -34.1640625 19.62109375 -35.1640625 21.62109375 C-35.67634265 27.23098124 -35.92662283 32.06873879 -33.4140625 37.18359375 C-29.18287634 41.76737875 -26.56705839 43.29551769 -20.1640625 43.62109375 C-15.65924806 42.92207082 -13.12346524 41.94789617 -10.2265625 38.49609375 C-9.5459375 37.54734375 -8.8653125 36.59859375 -8.1640625 35.62109375 C-15.0940625 35.12609375 -15.0940625 35.12609375 -22.1640625 34.62109375 C-22.1640625 29.67109375 -22.1640625 24.72109375 -22.1640625 19.62109375 C-10.9440625 19.62109375 0.2759375 19.62109375 11.8359375 19.62109375 C11.8359375 31.80162949 10.54766279 41.85522944 2.8359375 51.62109375 C0.36520552 54.04067186 -2.17565255 55.88975873 -5.1640625 57.62109375 C-5.74542969 57.96011719 -6.32679688 58.29914063 -6.92578125 58.6484375 C-14.3784158 62.1565106 -23.75868607 61.76304041 -31.5546875 59.7421875 C-40.83308977 56.21033337 -46.64522429 50.79535792 -51.16015625 42.00390625 C-54.99207696 32.90868588 -54.82080328 23.8885896 -51.6640625 14.62109375 C-48.3711753 7.08430499 -42.90433991 0.5109359 -35.3515625 -2.94140625 C-33.97233699 -3.4664666 -32.57604143 -3.94964306 -31.1640625 -4.37890625 C-30.56464844 -4.56710938 -29.96523438 -4.7553125 -29.34765625 -4.94921875 C-18.92528939 -7.00013173 -8.95185133 -5.70397747 0 0 Z " fill="#FFFFFE" transform="translate(396.1640625,198.37890625)"/>
<path d="M0 0 C32.83319979 0 32.83319979 0 42.21484375 9.015625 C48.8545254 16.39627769 52.58436711 23.70299459 52.24609375 33.87109375 C51.06527699 44.08609591 46.47223223 52.41567649 38.5625 58.9375 C31.89282906 63.74768004 25.99534172 64.24601051 18 64 C18 58.72 18 53.44 18 48 C19.216875 47.7525 20.43375 47.505 21.6875 47.25 C25.66469368 46.21705394 28.18893658 45.13232782 31 42 C33.90548485 36.56040807 34.48623886 31.93667095 32.80078125 26.01171875 C31.34594627 22.35688942 29.3823139 19.9215426 26.125 17.75 C23.4144704 16.72433373 23.4144704 16.72433373 18 16 C17.67 31.84 17.34 47.68 17 64 C11.39 64 5.78 64 0 64 C0 42.88 0 21.76 0 0 Z " fill="#FFFFFE" transform="translate(261,194)"/>
<path d="M0 0 C5.61863478 3.4668172 10.71331397 8.45809654 12.5451355 14.97384644 C13.76628984 20.97297765 14.20747241 26.6446589 14.1328125 32.7578125 C14.1299826 33.65370087 14.12715271 34.54958923 14.12423706 35.47262573 C14.1131684 38.29439464 14.0880901 41.11582933 14.0625 43.9375 C14.05245294 45.86718287 14.04333014 47.79687079 14.03515625 49.7265625 C14.01327294 54.422001 13.97883752 59.11719412 13.9375 63.8125 C8.3275 63.8125 2.7175 63.8125 -3.0625 63.8125 C-3.0625 55.8925 -3.0625 47.9725 -3.0625 39.8125 C-7.6825 39.8125 -12.3025 39.8125 -17.0625 39.8125 C-17.0625 34.8625 -17.0625 29.9125 -17.0625 24.8125 C-12.4425 24.8125 -7.8225 24.8125 -3.0625 24.8125 C-3.7225 22.1725 -4.3825 19.5325 -5.0625 16.8125 C-6.49890171 16.61676392 -7.93669504 16.43122184 -9.375 16.25 C-10.17550781 16.14558594 -10.97601563 16.04117188 -11.80078125 15.93359375 C-14.23067116 15.66494822 -14.23067116 15.66494822 -17.0625 16.8125 C-18.10261326 22.01676776 -18.27689329 27.08200023 -18.37890625 32.3671875 C-18.39968735 33.26873566 -18.42046844 34.17028381 -18.44187927 35.09915161 C-18.5069458 37.9618614 -18.56605914 40.82465819 -18.625 43.6875 C-18.66822607 45.63542544 -18.71184164 47.58334229 -18.75585938 49.53125 C-18.86258289 54.29157889 -18.96396964 59.05199476 -19.0625 63.8125 C-24.3425 63.8125 -29.6225 63.8125 -35.0625 63.8125 C-35.16196345 57.44454414 -35.23424892 51.07704838 -35.28222656 44.70849609 C-35.3022439 42.54565546 -35.3294663 40.38286827 -35.36425781 38.22021484 C-35.41321247 35.09719594 -35.43556817 31.9748974 -35.453125 28.8515625 C-35.47377014 27.89698151 -35.49441528 26.94240051 -35.51568604 25.95889282 C-35.51818709 18.34125551 -33.96368872 11.41158898 -29.09765625 5.375 C-28.44667969 4.859375 -27.79570312 4.34375 -27.125 3.8125 C-26.47660156 3.27625 -25.82820313 2.74 -25.16015625 2.1875 C-18.1232024 -2.42517738 -7.86725151 -3.0565922 0 0 Z " fill="#FFFFFE" transform="translate(518.0625,194.1875)"/>
<path d="M0 0 C14.52 0 29.04 0 44 0 C44 4.95 44 9.9 44 15 C39.38 15 34.76 15 30 15 C30 31.17 30 47.34 30 64 C24.72 64 19.44 64 14 64 C14 47.83 14 31.66 14 15 C9.38 15 4.76 15 0 15 C0 10.05 0 5.1 0 0 Z " fill="#FFFFFD" transform="translate(436,194)"/>
<path d="M0 0 C3.7960461 1.74045133 6.26144151 3.70806095 8.33984375 7.34375 C9.21359088 10.85941893 8.37059228 12.19537092 6.625 15.3125 C6.14289063 16.19550781 5.66078125 17.07851563 5.1640625 17.98828125 C4.58785156 18.98408203 4.58785156 18.98408203 4 20 C1.53199953 18.84826645 -0.04783565 17.95216435 -2 16 C-4.58354218 15.83312552 -4.58354218 15.83312552 -7 16 C-11.5840779 23.16262172 -11.82418942 29.61908588 -11 38 C-10.34312184 40.92996014 -9.66687708 42.44015305 -8 45 C-6.13740463 46.32051497 -6.13740463 46.32051497 -4 46 C-0.36048692 44.07319896 0.75368556 41.84280285 2 38 C0.2984375 38.0309375 0.2984375 38.0309375 -1.4375 38.0625 C-5 38 -5 38 -6 37 C-6.14393457 32.66469082 -6.04212061 28.33842269 -6 24 C0.27 24 6.54 24 13 24 C12.11127326 51.32834732 12.11127326 51.32834732 2 61 C-1.53183926 62.76591963 -5.15359546 62.64316928 -9 62 C-14.32231725 59.28706786 -17.11082402 54.84444458 -19.22265625 49.40625 C-23.16920188 37.18980725 -23.54852669 24.12376818 -19 12 C-14.5662568 3.59203321 -10.03101796 -1.80693421 0 0 Z " fill="#FFFFFE" transform="translate(465,272)"/>
<path d="M0 0 C0.763125 0.0825 1.52625 0.165 2.3125 0.25 C6.83795222 8.12763905 8.86341284 16.54213453 11.3125 25.25 C11.6425 17.33 11.9725 9.41 12.3125 1.25 C15.2825 1.25 18.2525 1.25 21.3125 1.25 C21.38856355 9.13364482 21.44110577 17.017195 21.47729492 24.90112305 C21.49068702 27.58319554 21.51156077 30.26505492 21.53881836 32.94702148 C21.57520611 36.80198251 21.592228 40.65661733 21.60546875 44.51171875 C21.62095261 45.71084396 21.63643646 46.90996918 21.65238953 48.14543152 C21.65261612 49.26621597 21.65284271 50.38700043 21.65307617 51.54174805 C21.65973801 52.52547897 21.66639984 53.5092099 21.67326355 54.52275085 C21.2512352 57.71314096 20.12519892 59.6226911 18.3125 62.25 C16.0625 62.3125 16.0625 62.3125 13.3125 61.25 C9.72878765 55.32701432 7.96142394 48.29013606 6.0625 41.6875 C5.794375 40.77419922 5.52625 39.86089844 5.25 38.91992188 C4.59859721 36.69817306 3.95287422 34.4749475 3.3125 32.25 C3.31773682 33.05743652 3.32297363 33.86487305 3.32836914 34.69677734 C3.34909929 38.33951038 3.36214749 41.98223102 3.375 45.625 C3.38337891 46.89601563 3.39175781 48.16703125 3.40039062 49.4765625 C3.40361328 50.68828125 3.40683594 51.9 3.41015625 53.1484375 C3.41539307 54.26911621 3.42062988 55.38979492 3.42602539 56.54443359 C3.3125 59.25 3.3125 59.25 2.3125 61.25 C-0.3275 61.25 -2.9675 61.25 -5.6875 61.25 C-5.75705197 53.88726948 -5.81033745 46.52460995 -5.84293652 39.16161728 C-5.85858358 35.74255508 -5.8798037 32.32371787 -5.91381836 28.90478516 C-5.95268985 24.97300929 -5.96721721 21.0413241 -5.98046875 17.109375 C-5.99595261 15.88321472 -6.01143646 14.65705444 -6.02738953 13.39373779 C-6.02772942 11.68241669 -6.02772942 11.68241669 -6.02807617 9.93652344 C-6.03473801 8.93280701 -6.04139984 7.92909058 -6.04826355 6.8949585 C-5.49044097 2.80525047 -4.25479077 0.39579449 0 0 Z " fill="#FFFFFE" transform="translate(515.6875,271.75)"/>
<path d="M0 0 C4.05181056 0.35542198 3.93501326 0.68501326 6.5625 3.3125 C9.23749409 3.89029872 11.82471739 4.08809159 14.5625 4.3125 C14.5625 2.9925 14.5625 1.6725 14.5625 0.3125 C22.9235751 -0.36178025 28.96593196 1.57493275 35.52734375 6.91015625 C37.1875 8.5 37.1875 8.5 39.5625 11.3125 C39.5625 11.9725 39.5625 12.6325 39.5625 13.3125 C38.88703125 13.34988281 38.2115625 13.38726562 37.515625 13.42578125 C36.62359375 13.49152344 35.7315625 13.55726563 34.8125 13.625 C33.93078125 13.68300781 33.0490625 13.74101562 32.140625 13.80078125 C29.17232479 14.38994387 27.70836992 15.19135209 25.5625 17.3125 C25.09336911 21.69105495 25.09306471 23.60834707 27.5625 27.3125 C30.61437389 28.3297913 33.03069577 28.32025597 36.21313477 28.2980957 C45.36345191 28.35906337 45.36345191 28.35906337 48.984375 31.23828125 C52.81147709 36.80580358 52.81147709 36.80580358 52.18359375 40.60546875 C51.97863281 41.16878906 51.77367188 41.73210937 51.5625 42.3125 C49.2525 42.3125 46.9425 42.3125 44.5625 42.3125 C44.62050781 43.12074219 44.67851563 43.92898438 44.73828125 44.76171875 C45.10823017 53.52422309 45.10823017 53.52422309 42.3125 57.5625 C39.5625 59.3125 39.5625 59.3125 35.5625 59.3125 C35.54832031 58.28769531 35.53414062 57.26289063 35.51953125 56.20703125 C35.47260984 54.84631029 35.42436256 53.48563459 35.375 52.125 C35.36919922 51.45146484 35.36339844 50.77792969 35.35742188 50.08398438 C35.19888563 46.47288104 34.73202816 44.53051064 32.5 41.66015625 C28.39138908 38.37654566 24.07959444 35.42844044 19.65039062 32.59375 C17.72409149 31.26526784 16.09684225 30.08137338 14.5625 28.3125 C14.11328125 24.4609375 14.11328125 24.4609375 14.5625 21.3125 C11.12403253 21.39331582 7.68734688 21.50616152 4.25 21.625 C3.27353516 21.64755859 2.29707031 21.67011719 1.29101562 21.69335938 C-0.11567383 21.7465332 -0.11567383 21.7465332 -1.55078125 21.80078125 C-2.84689331 21.84005737 -2.84689331 21.84005737 -4.16918945 21.88012695 C-6.88773391 22.39832114 -7.57773841 23.3499359 -9.4375 25.3125 C-15.34704774 25.94566583 -15.34704774 25.94566583 -18.375 24.1875 C-19.96740283 21.37737736 -19.89069325 19.48485276 -19.4375 16.3125 C-17.875 13.875 -17.875 13.875 -15.4375 12.3125 C-9.22321429 12.52678571 -9.22321429 12.52678571 -6.4375 15.3125 C-4.21091846 15.68254294 -4.21091846 15.68254294 -1.6484375 15.7265625 C-0.70742188 15.76523438 0.23359375 15.80390625 1.203125 15.84375 C2.18796875 15.8746875 3.1728125 15.905625 4.1875 15.9375 C5.67636719 15.99550781 5.67636719 15.99550781 7.1953125 16.0546875 C9.65085385 16.1491314 12.1063841 16.23469875 14.5625 16.3125 C14.5625 14.0025 14.5625 11.6925 14.5625 9.3125 C11.5925 9.3125 8.6225 9.3125 5.5625 9.3125 C5.5625 9.9725 5.5625 10.6325 5.5625 11.3125 C3.15228936 12.83004003 1.87914378 13.33566906 -1 13.125 C-3.74941087 12.20852971 -4.93851314 11.81081143 -6.4375 9.3125 C-5.97596154 0.54326923 -5.97596154 0.54326923 0 0 Z " fill="#FFFFFF" transform="translate(49.4375,229.6875)"/>
<path d="M0 0 C5.61 0 11.22 0 17 0 C17.02505615 1.35270996 17.0501123 2.70541992 17.07592773 4.09912109 C17.16990726 9.10491862 17.27015085 14.1105743 17.37231445 19.11621094 C17.41569919 21.28512256 17.45737161 23.45406913 17.49731445 25.62304688 C17.55493139 28.73578435 17.61865038 31.84834535 17.68359375 34.9609375 C17.70030624 35.934935 17.71701874 36.9089325 17.73423767 37.91244507 C17.75418289 38.81322784 17.77412811 39.71401062 17.79467773 40.64208984 C17.81799416 41.83455826 17.81799416 41.83455826 17.84178162 43.05111694 C17.88441725 45.07997774 17.88441725 45.07997774 19 47 C22.45777222 48.24315144 26.11059486 48.30774164 29.75 48.5625 C31.8125 48.706875 33.875 48.85125 36 49 C36 53.95 36 58.9 36 64 C32.49915355 64.10864696 29.00172828 64.18762825 25.5 64.25 C24.51773438 64.28351563 23.53546875 64.31703125 22.5234375 64.3515625 C16.13167285 64.43678603 11.2718881 63.80043385 6 60 C4.16015625 58.03515625 4.16015625 58.03515625 3.0625 56.0625 C2.68222656 55.41410156 2.30195312 54.76570313 1.91015625 54.09765625 C0.21677622 50.19488768 -0.1248956 46.33626673 -0.11352539 42.11791992 C-0.11344986 41.17732224 -0.11337433 40.23672455 -0.11329651 39.2676239 C-0.10813522 38.2653627 -0.10297394 37.2631015 -0.09765625 36.23046875 C-0.0962413 35.19432938 -0.09482635 34.15819 -0.09336853 33.09065247 C-0.08778242 29.78957196 -0.07523242 26.48855992 -0.0625 23.1875 C-0.05748321 20.94596452 -0.05292061 18.70442798 -0.04882812 16.46289062 C-0.03781753 10.97523414 -0.02056239 5.48762867 0 0 Z " fill="#FFFFFE" transform="translate(539,194)"/>
<path d="M0 0 C5.04688977 3.67046528 6.61321168 8.13213409 8 14 C8.36786094 17.65692468 8.35221568 21.2690795 8.29296875 24.94140625 C8.28872391 25.94968979 8.28447906 26.95797333 8.28010559 27.99681091 C8.26344683 31.18565716 8.22581877 34.373848 8.1875 37.5625 C8.17243661 39.73762102 8.15875112 41.91275204 8.14648438 44.08789062 C8.1135853 49.39217577 8.06189243 54.69597715 8 60 C5.03 60 2.06 60 -1 60 C-1 52.74 -1 45.48 -1 38 C-3.31 38 -5.62 38 -8 38 C-8 45.26 -8 52.52 -8 60 C-11.3 60 -14.6 60 -18 60 C-18.05012236 54.98699333 -18.08605439 49.97413833 -18.10986328 44.9609375 C-18.11980786 43.26201836 -18.13336831 41.56311581 -18.15087891 39.86425781 C-18.46392524 8.67011102 -18.46392524 8.67011102 -11 1 C-7.06771814 -1.43502023 -4.47890691 -1.17865971 0 0 Z M-6 15 C-8.41121859 16.95633975 -8.41121859 16.95633975 -8.125 20.625 C-8.08375 21.73875 -8.0425 22.8525 -8 24 C-5.69 24 -3.38 24 -1 24 C-0.76571687 19.2102679 -0.76571687 19.2102679 -3 15 C-3.99 15 -4.98 15 -6 15 Z " fill="#FFFFFE" transform="translate(433,273)"/>
<path d="M0 0 C5.49272936 4.86855557 7.5352941 11.36322044 8.2593689 18.58795166 C8.34340789 21.26450347 8.33848421 23.92412826 8.29296875 26.6015625 C8.28872391 27.564039 8.28447906 28.5265155 8.28010559 29.51815796 C8.26348275 32.55407204 8.22586256 35.58929088 8.1875 38.625 C8.17243193 40.69920908 8.15874727 42.77342869 8.14648438 44.84765625 C8.11363319 49.8987002 8.06196676 54.94923275 8 60 C5.03 60 2.06 60 -1 60 C-1 52.74 -1 45.48 -1 38 C-3.31 38 -5.62 38 -8 38 C-8 33.38 -8 28.76 -8 24 C-5.69 24 -3.38 24 -1 24 C-1.66 21.36 -2.32 18.72 -3 16 C-4.32 15.67 -5.64 15.34 -7 15 C-8.1821725 19.732897 -8.22098328 24.38993785 -8.31640625 29.23828125 C-8.33718735 30.11904831 -8.35796844 30.99981537 -8.37937927 31.90727234 C-8.44453937 34.70893879 -8.50360321 37.51069557 -8.5625 40.3125 C-8.60571715 42.21680606 -8.64933244 44.12110312 -8.69335938 46.02539062 C-8.80018623 50.68350218 -8.9015474 55.34170422 -9 60 C-11.97 60 -14.94 60 -18 60 C-18.04972466 54.18336204 -18.08587252 48.36684996 -18.10986328 42.55004883 C-18.1198729 40.57444094 -18.13348469 38.59884769 -18.15087891 36.62329102 C-18.17535009 33.77095918 -18.18653376 30.91882453 -18.1953125 28.06640625 C-18.20563507 27.19415909 -18.21595764 26.32191193 -18.22659302 25.42323303 C-18.22788827 18.2191877 -17.66053518 10.74432299 -13.625 4.5625 C-13.22539062 3.92441406 -12.82578125 3.28632813 -12.4140625 2.62890625 C-8.78954306 -1.54629984 -5.127642 -1.43933811 0 0 Z " fill="#FFFFFE" transform="translate(498,273)"/>
<path d="M0 0 C5.49272936 4.86855557 7.5352941 11.36322044 8.2593689 18.58795166 C8.34340789 21.26450347 8.33848421 23.92412826 8.29296875 26.6015625 C8.28872391 27.564039 8.28447906 28.5265155 8.28010559 29.51815796 C8.26348275 32.55407204 8.22586256 35.58929088 8.1875 38.625 C8.17243193 40.69920908 8.15874727 42.77342869 8.14648438 44.84765625 C8.11363319 49.8987002 8.06196676 54.94923275 8 60 C5.03 60 2.06 60 -1 60 C-1 52.74 -1 45.48 -1 38 C-3.31 38 -5.62 38 -8 38 C-8 33.38 -8 28.76 -8 24 C-5.69 24 -3.38 24 -1 24 C-1.66 21.36 -2.32 18.72 -3 16 C-4.32 15.67 -5.64 15.34 -7 15 C-8.1821725 19.732897 -8.22098328 24.38993785 -8.31640625 29.23828125 C-8.33718735 30.11904831 -8.35796844 30.99981537 -8.37937927 31.90727234 C-8.44453937 34.70893879 -8.50360321 37.51069557 -8.5625 40.3125 C-8.60571715 42.21680606 -8.64933244 44.12110312 -8.69335938 46.02539062 C-8.80018623 50.68350218 -8.9015474 55.34170422 -9 60 C-11.97 60 -14.94 60 -18 60 C-18.04972466 54.18336204 -18.08587252 48.36684996 -18.10986328 42.55004883 C-18.1198729 40.57444094 -18.13348469 38.59884769 -18.15087891 36.62329102 C-18.17535009 33.77095918 -18.18653376 30.91882453 -18.1953125 28.06640625 C-18.20563507 27.19415909 -18.21595764 26.32191193 -18.22659302 25.42323303 C-18.22788827 18.2191877 -17.66053518 10.74432299 -13.625 4.5625 C-13.22539062 3.92441406 -12.82578125 3.28632813 -12.4140625 2.62890625 C-8.78954306 -1.54629984 -5.127642 -1.43933811 0 0 Z " fill="#FFFFFE" transform="translate(378,273)"/>
<path d="M0 0 C4.68748138 1.70124807 5.987355 4.80628707 8.015625 9.14453125 C10.67173798 16.84936691 9.27567229 23.76622369 6 31 C6.474375 31.350625 6.94875 31.70125 7.4375 32.0625 C11.42456867 37.00646516 10.11947388 45.35006008 10.0625 51.4375 C10.05798828 52.35982422 10.05347656 53.28214844 10.04882812 54.23242188 C10.03713959 56.48830968 10.01920769 58.74416368 10 61 C6.7 61 3.4 61 0 61 C-0.33 54.4 -0.66 47.8 -1 41 C-2.65 40.34 -4.3 39.68 -6 39 C-6 46.26 -6 53.52 -6 61 C-8.97 61 -11.94 61 -15 61 C-15.07452132 54.61371369 -15.12877744 48.22768421 -15.16479492 41.84106445 C-15.17982036 39.6714232 -15.20024653 37.50181202 -15.22631836 35.33227539 C-15.26297706 32.2019099 -15.27978926 29.0719483 -15.29296875 25.94140625 C-15.30845261 24.98166397 -15.32393646 24.02192169 -15.33988953 23.03309631 C-15.34194856 14.67064339 -14.00602952 7.19977241 -8 1 C-5.2201184 -0.3899408 -3.0813674 -0.18488204 0 0 Z M-4 15 C-6.4294516 18.6441774 -6.16179575 20.71241272 -6 25 C-4.35 24.67 -2.7 24.34 -1 24 C-0.19032562 21.08517222 0.21845993 19.53886783 -0.9375 16.6875 C-1.288125 16.130625 -1.63875 15.57375 -2 15 C-2.66 15 -3.32 15 -4 15 Z " fill="#FFFFFE" transform="translate(348,272)"/>
<path d="M0 0 C5.61 0 11.22 0 17 0 C17 21.12 17 42.24 17 64 C11.39 64 5.78 64 0 64 C0 42.88 0 21.76 0 0 Z " fill="#FFFFFE" transform="translate(414,194)"/>
<path d="M0 0 C5.61 0 11.22 0 17 0 C17 21.12 17 42.24 17 64 C11.39 64 5.78 64 0 64 C0 42.88 0 21.76 0 0 Z " fill="#FFFFFD" transform="translate(319,194)"/>
<path d="M0 0 C4.31095008 0.2535853 6.49714628 0.5845991 9.875 3.375 C12 6 12 6 13 9 C13.66 9 14.32 9 15 9 C15.20625 8.443125 15.4125 7.88625 15.625 7.3125 C17.57076492 4.04007718 19.90407743 2.18535711 23 0 C24.65 0 26.3 0 28 0 C28 4.95 28 9.9 28 15 C26.35 15.66 24.7 16.32 23 17 C18.72855658 22.44977263 19.38923252 29.42379125 20 36 C20.95681345 39.59279457 20.95681345 39.59279457 23 42 C23.8559375 42.39574219 24.711875 42.79148437 25.59375 43.19921875 C28 45 28 45 28.48828125 48.35546875 C28.43027344 49.62003906 28.37226563 50.88460937 28.3125 52.1875 C28.24482422 54.09595703 28.24482422 54.09595703 28.17578125 56.04296875 C28.11777344 57.01878906 28.05976563 57.99460937 28 59 C22.76275536 58.58923571 19.70807953 57.81714069 16 54 C15.1875 51.75 15.1875 51.75 15 50 C14.34 50 13.68 50 13 50 C12.79375 50.7425 12.5875 51.485 12.375 52.25 C10.55718769 55.88562462 8.5624345 57.11400526 5 59 C2.30078125 59.10546875 2.30078125 59.10546875 0 59 C-0.34026717 54.2866696 -0.54546598 49.70191672 0 45 C2.875 42.375 2.875 42.375 6 41 C8.5323413 37.48848673 8.33295404 33.83800499 8.375 29.625 C8.40335937 28.33851563 8.43171875 27.05203125 8.4609375 25.7265625 C7.92559228 21.39843248 6.7893877 19.31790327 4 16 C2.68 15.34 1.36 14.68 0 14 C0 9.38 0 4.76 0 0 Z " fill="#FFFFFE" transform="translate(278,274)"/>
<path d="M0 0 C2.97 0 5.94 0 9 0 C10.65 10.89 12.3 21.78 14 33 C15.2738017 23.63656117 15.2738017 23.63656117 16.54272461 14.27246094 C16.78261108 12.5211084 16.78261108 12.5211084 17.02734375 10.734375 C17.18968506 9.54038086 17.35202637 8.34638672 17.51928711 7.11621094 C18 4 18 4 19 0 C21.97 0 24.94 0 28 0 C27.37318629 10.08493845 25.97849342 20.04601776 24.52587891 30.0378418 C24.12351503 32.82277814 23.73549244 35.60949255 23.34765625 38.39648438 C23.08941895 40.1876267 22.83033412 41.97864708 22.5703125 43.76953125 C22.45769073 44.59258255 22.34506897 45.41563385 22.22903442 46.2636261 C20.5608275 57.4391725 20.5608275 57.4391725 17 61 C14.125 61.3125 14.125 61.3125 11 61 C7.72041498 57.77294837 7.24259766 54.31228445 6.48046875 49.8828125 C6.2972834 48.8343364 6.2972834 48.8343364 6.11039734 47.76467896 C4.82128759 40.25371631 3.70323884 32.71443067 2.63745117 25.16894531 C2.30767434 22.84093399 1.96952718 20.51423277 1.63085938 18.1875 C1.41617036 16.68496666 1.20195941 15.18236492 0.98828125 13.6796875 C0.88832352 12.99526581 0.78836578 12.31084412 0.68537903 11.60568237 C0.14173636 7.70587799 -0.09647656 3.93609098 0 0 Z " fill="#FFFFFD" transform="translate(387,273)"/>
<path d="M0 0 C1 1 1 1 1.09765625 3.94140625 C1.08605469 5.13636719 1.07445312 6.33132813 1.0625 7.5625 C1.05347656 8.76003906 1.04445313 9.95757812 1.03515625 11.19140625 C1.02355469 12.11824219 1.01195312 13.04507812 1 14 C0.07767578 14.22042969 0.07767578 14.22042969 -0.86328125 14.4453125 C-6.39787952 15.92039146 -6.39787952 15.92039146 -10.0625 20.1875 C-10.371875 21.115625 -10.68125 22.04375 -11 23 C-7.04 23 -3.08 23 1 23 C1.02685938 25.14576637 1.04633088 27.29162645 1.0625 29.4375 C1.07410156 30.63246094 1.08570313 31.82742188 1.09765625 33.05859375 C1 36 1 36 0 37 C-1.85287502 37.07226502 -3.70833878 37.0838122 -5.5625 37.0625 C-6.57441406 37.05347656 -7.58632813 37.04445313 -8.62890625 37.03515625 C-9.80259766 37.01775391 -9.80259766 37.01775391 -11 37 C-8.88673474 41.70842624 -8.88673474 41.70842624 -5 45 C-3.02 45.66 -1.04 46.32 1 47 C1 51.29 1 55.58 1 60 C-4.54742652 60.28693585 -8.32566176 60.35332961 -13 57 C-21.0620609 47.33709925 -22.67548508 36.03863375 -21.75390625 23.70703125 C-20.49304512 14.90331948 -18.00598091 7.80983783 -11 2 C-7.27254803 -0.00708952 -4.20693657 -0.28683658 0 0 Z " fill="#FFFFFE" transform="translate(585,273)"/>
<path d="M0 0 C0 4.62 0 9.24 0 14 C-1.44375 14.226875 -2.8875 14.45375 -4.375 14.6875 C-6.83654836 15.16663613 -6.83654836 15.16663613 -9 16 C-10.62332335 18.38788787 -10.62332335 18.38788787 -11 21 C-11.33 21.66 -11.66 22.32 -12 23 C-8.04 23 -4.08 23 0 23 C0 27.62 0 32.24 0 37 C-3.96 37 -7.92 37 -12 37 C-9.88673474 41.70842624 -9.88673474 41.70842624 -6 45 C-4.02 45.33 -2.04 45.66 0 46 C0 50.62 0 55.24 0 60 C-5.56711726 60.28795434 -9.25119544 60.2713987 -14 57 C-21.9915492 48.82682469 -22.486322 38.23304891 -22.42163086 27.40673828 C-22.15675579 18.08977953 -20.14292568 10.20758275 -13.5703125 3.3046875 C-9.29160961 -0.2502547 -5.43904344 0 0 0 Z " fill="#FFFFFE" transform="translate(276,273)"/>
<path d="M0 0 C0 4.62 0 9.24 0 14 C-1.44375 14.226875 -2.8875 14.45375 -4.375 14.6875 C-6.83584796 15.17164897 -6.83584796 15.17164897 -9 16 C-10.63670197 18.33990708 -10.63670197 18.33990708 -11 21 C-11.33 21.99 -11.66 22.98 -12 24 C-12.5010013 30.67680579 -12.67750796 36.17727906 -9 42 C-9 42.66 -9 43.32 -9 44 C-6.03 44.66 -3.06 45.32 0 46 C0 50.62 0 55.24 0 60 C-5.56711726 60.28795434 -9.25119544 60.2713987 -14 57 C-21.99623862 48.82202868 -22.47285336 38.23815141 -22.42602539 27.40893555 C-22.17917441 18.31132368 -20.01170442 10.07259344 -14 3 C-9.23537975 -0.24860472 -5.56573129 -0.28788265 0 0 Z " fill="#FFFFFE" transform="translate(562,273)"/>
<path d="M0 0 C7.59 0 15.18 0 23 0 C23 4.62 23 9.24 23 14 C20.69 14 18.38 14 16 14 C16 29.18 16 44.36 16 60 C13.03 60 10.06 60 7 60 C7 44.82 7 29.64 7 14 C4.69 14 2.38 14 0 14 C0 9.38 0 4.76 0 0 Z " fill="#FFFFFD" transform="translate(308,273)"/>
<path d="M0 0 C3 6.75 3 6.75 3 9 C-2.28 9 -7.56 9 -13 9 C-13.66 7.35 -14.32 5.7 -15 4 C-11.3460697 -1.5678938 -5.94143168 -0.36877852 0 0 Z " fill="#FFFFFF" transform="translate(91,246)"/>
</svg>
